<svg xmlns="http://www.w3.org/2000/svg" width="64" height="64" viewBox="0 0 64 64"><path d="M63.311,5H10.689A5.7,5.7,0,0,0,5,10.689V63.311A5.7,5.7,0,0,0,10.689,69H63.311A5.7,5.7,0,0,0,69,63.311V10.689A5.7,5.7,0,0,0,63.311,5ZM10.689,7.844H63.311a2.844,2.844,0,0,1,2.844,2.844v8.533H7.844V10.689A2.844,2.844,0,0,1,10.689,7.844ZM63.311,66.156H10.689a2.844,2.844,0,0,1-2.844-2.844V22.067H66.156V63.311A2.844,2.844,0,0,1,63.311,66.156ZM12.14,13.811a1.225,1.225,0,0,1-.028-.277,1.411,1.411,0,0,1,1.7-1.394,1.122,1.122,0,0,1,.263.078,1.052,1.052,0,0,1,.249.135,1.248,1.248,0,0,1,.213.171,1.427,1.427,0,0,1,.42,1.01,1.225,1.225,0,0,1-.028.277,1.122,1.122,0,0,1-.078.263,1.39,1.39,0,0,1-.135.249,1.534,1.534,0,0,1-.391.391,1.39,1.39,0,0,1-.249.135,1.122,1.122,0,0,1-.263.078,1.225,1.225,0,0,1-.277.028,1.427,1.427,0,0,1-1.01-.42,1.248,1.248,0,0,1-.171-.213,1.052,1.052,0,0,1-.135-.249A1.122,1.122,0,0,1,12.14,13.811Zm7.111,0a1.225,1.225,0,0,1-.028-.277,1.4,1.4,0,0,1,.42-1,1.013,1.013,0,0,1,.213-.178,1.613,1.613,0,0,1,.242-.135,1.291,1.291,0,0,1,.27-.078,1.455,1.455,0,0,1,.555,0,1.122,1.122,0,0,1,.263.078,1.39,1.39,0,0,1,.249.135,1.013,1.013,0,0,1,.213.178,1.4,1.4,0,0,1,.42,1,1.225,1.225,0,0,1-.028.277,1.122,1.122,0,0,1-.078.263,1.052,1.052,0,0,1-.135.249,1.013,1.013,0,0,1-.178.213,1.41,1.41,0,0,1-1,.42,1.225,1.225,0,0,1-.277-.028,1.291,1.291,0,0,1-.27-.078,1.613,1.613,0,0,1-.242-.135,1.534,1.534,0,0,1-.391-.391,1.052,1.052,0,0,1-.135-.249A1.122,1.122,0,0,1,19.251,13.811Zm7.111,0a1.225,1.225,0,0,1-.028-.277,1.427,1.427,0,0,1,.42-1.01,1.471,1.471,0,0,1,2.005,0,1.427,1.427,0,0,1,.42,1.01,1.225,1.225,0,0,1-.028.277,1.933,1.933,0,0,1-.078.27,1.613,1.613,0,0,1-.135.242,1.272,1.272,0,0,1-.178.22,1.425,1.425,0,0,1-2.005,0,1.272,1.272,0,0,1-.178-.22,1.613,1.613,0,0,1-.135-.242A1.291,1.291,0,0,1,26.362,13.811Zm31.972,17.5a1.426,1.426,0,0,1-1.422,1.422H17.089a1.422,1.422,0,0,1,0-2.844H56.911A1.426,1.426,0,0,1,58.333,31.311Zm0,25.6a1.426,1.426,0,0,1-1.422,1.422H46.956a1.422,1.422,0,0,1,0-2.844h9.956A1.426,1.426,0,0,1,58.333,56.911Zm0-8.533A1.426,1.426,0,0,1,56.911,49.8H46.956a1.422,1.422,0,0,1,0-2.844h9.956A1.426,1.426,0,0,1,58.333,48.378Zm0-8.533a1.426,1.426,0,0,1-1.422,1.422H46.956a1.422,1.422,0,0,1,0-2.844h9.956A1.426,1.426,0,0,1,58.333,39.844ZM37,38.422H17.089a1.426,1.426,0,0,0-1.422,1.422V56.911a1.426,1.426,0,0,0,1.422,1.422H37a1.426,1.426,0,0,0,1.422-1.422V39.844A1.426,1.426,0,0,0,37,38.422ZM35.578,55.489H18.511V41.267H35.578Z" transform="translate(-5 -5)" fill="#fff"/></svg>