<svg xmlns="http://www.w3.org/2000/svg" width="87" height="64" viewBox="0 0 87 64"><path d="M86.2,26.7H77.5V22.818A5.826,5.826,0,0,0,71.7,17h-29a5.826,5.826,0,0,0-5.8,5.818V26.7H22.4V22.818A5.826,5.826,0,0,0,16.6,17H14.667a5.826,5.826,0,0,0-5.8,5.818v4.267A5.775,5.775,0,0,0,5,32.515V75.182A5.826,5.826,0,0,0,10.8,81H86.2A5.826,5.826,0,0,0,92,75.182V32.515A5.826,5.826,0,0,0,86.2,26.7Zm1.933,5.818V46.091H72.763a17.338,17.338,0,0,0-31.127,0H26.267V30.576H86.2A1.942,1.942,0,0,1,88.133,32.515ZM57.2,40.273A13.576,13.576,0,1,1,43.667,53.848,13.594,13.594,0,0,1,57.2,40.273ZM40.767,22.818A1.942,1.942,0,0,1,42.7,20.879h29a1.942,1.942,0,0,1,1.933,1.939V26.7H40.767Zm-28.033,0a1.942,1.942,0,0,1,1.933-1.939H16.6a1.942,1.942,0,0,1,1.933,1.939V26.7h-5.8ZM8.867,75.182V32.515A1.942,1.942,0,0,1,10.8,30.576H22.4V77.121H10.8A1.942,1.942,0,0,1,8.867,75.182ZM86.2,77.121H26.267V49.97H40.283a17.043,17.043,0,0,0-.483,3.879,17.4,17.4,0,1,0,34.8,0,17.043,17.043,0,0,0-.483-3.879H88.133V75.182A1.942,1.942,0,0,1,86.2,77.121Zm-29-15.515a7.758,7.758,0,1,0-7.733-7.758A7.768,7.768,0,0,0,57.2,61.606Zm0-11.636a3.879,3.879,0,1,1-3.867,3.879A3.884,3.884,0,0,1,57.2,49.97ZM79.047,39.691a1.879,1.879,0,0,1,0-2.715c.1-.1.193-.194.29-.194.1-.1.193-.1.29-.194s.193-.1.387-.1a2.192,2.192,0,0,1,1.74.485c.1.1.193.194.193.291.1.1.1.194.193.291,0,.1.1.194.1.388v.776c0,.1-.1.194-.1.388,0,.1-.1.194-.193.291s-.193.194-.193.291a1.906,1.906,0,0,1-1.353.582h-.387c-.1,0-.29-.1-.387-.1s-.193-.1-.29-.194Z" transform="translate(-5 -17)" fill="#fff"/></svg>