<svg xmlns="http://www.w3.org/2000/svg" width="65.455" height="64" viewBox="0 0 65.455 64"><path d="M64.636,6H10.818A5.835,5.835,0,0,0,5,11.818V56.909a5.835,5.835,0,0,0,5.818,5.818H27.545v5.818A1.459,1.459,0,0,0,29,70H46.455a1.459,1.459,0,0,0,1.455-1.455V62.727H64.636a5.835,5.835,0,0,0,5.818-5.818V11.818A5.835,5.835,0,0,0,64.636,6ZM7.909,11.818a2.918,2.918,0,0,1,2.909-2.909H60.273v4.364H7.909ZM36.273,67.091H30.455V55.455h5.818Zm5.455-20.364L44.2,52.545H31.182l2.473-5.818Zm-6.764-2.909,2.764-6.473,2.764,6.473ZM45,67.091H39.182V55.455H45Zm2.4-14.545L39.036,33.055a1.418,1.418,0,0,0-2.618,0L28.055,52.545H15.182V23.455H60.273V52.545Zm20.145,4.364a2.918,2.918,0,0,1-2.909,2.909H47.909V55.455H61.727A1.459,1.459,0,0,0,63.182,54V22a1.459,1.459,0,0,0-1.455-1.455h-48A1.459,1.459,0,0,0,12.273,22V54a1.459,1.459,0,0,0,1.455,1.455H27.545v4.364H10.818a2.918,2.918,0,0,1-2.909-2.909V16.182H67.545Zm0-43.636H63.182V8.909h1.455a2.918,2.918,0,0,1,2.909,2.909Z" transform="translate(-5 -6)" fill="#fff"/></svg>