<svg xmlns="http://www.w3.org/2000/svg" width="9" height="16" viewBox="0 0 9 16"><path d="M9.922,10.879l2.573-2.626,2.573,2.626a1.111,1.111,0,0,0,1.6,0,1.155,1.155,0,0,0,0-1.622L13.293,5.832a1.111,1.111,0,0,0-1.6,0L8.326,9.258a1.16,1.16,0,0,0,0,1.622A1.115,1.115,0,0,0,9.922,10.879Zm5.146,5.23-2.573,2.626L9.922,16.109a1.115,1.115,0,0,0-1.6,0,1.16,1.16,0,0,0,0,1.622L11.7,21.156a1.111,1.111,0,0,0,1.6,0l3.371-3.426a1.16,1.16,0,0,0,0-1.622A1.115,1.115,0,0,0,15.068,16.109Z" transform="translate(-7.996 -5.494)" fill="#8a929f"/></svg>