<svg xmlns="http://www.w3.org/2000/svg" width="64" height="64" viewBox="0 0 64 64"><path d="M67.578,66.156H62.244v-15.5a10.746,10.746,0,0,0,2.062-.924,1.4,1.4,0,0,0-1.422-2.418c-.213.142-.427.213-.64.356V35.72a1.422,1.422,0,0,0-2.844,0V66.156H54.28V49.018a1.422,1.422,0,0,0-2.844,0V66.156h-5.12V50.582a.9.9,0,0,0,.427-.071,9.836,9.836,0,0,0,6.969-9.387V31.453a14.049,14.049,0,0,0-3.84-9.6H55.56a10.191,10.191,0,0,1,6.044,1.92,10.794,10.794,0,0,1,2.418,2.347A14.7,14.7,0,0,1,65.089,27.9a10.15,10.15,0,0,1,.569,1.564,9.975,9.975,0,0,1,.427,2.916v9.316a4.7,4.7,0,0,1-.071,1,6.658,6.658,0,0,1-.284,1.138c-.071.142-.071.284-.142.427a1.443,1.443,0,0,0,.782,1.849,1.34,1.34,0,0,0,.569.142,1.4,1.4,0,0,0,1.28-.853c.071-.213.142-.356.213-.569a7.964,7.964,0,0,0,.427-1.636A9.638,9.638,0,0,0,69,41.764V32.378a12.948,12.948,0,0,0-.569-3.7,9.661,9.661,0,0,0-.782-1.991,14.1,14.1,0,0,0-1.351-2.2A13.559,13.559,0,0,0,63.24,21.5a13.08,13.08,0,0,0-4.907-2.133,7.356,7.356,0,1,0-10.951-.071c-.213.071-.356.071-.569.142A12.223,12.223,0,0,0,42.689,17.8a7.8,7.8,0,0,0,1.991-5.12A7.68,7.68,0,1,0,31.311,17.8a12.589,12.589,0,0,0-4.2,1.636c-.213-.071-.356-.071-.569-.142a7.289,7.289,0,1,0-10.88,0,13.416,13.416,0,0,0-10.6,13.084v9.316a9.389,9.389,0,0,0,6.613,8.96V60.4a1.422,1.422,0,0,0,2.844,0V35.72a1.422,1.422,0,0,0-2.844,0V47.667a6.62,6.62,0,0,1-3.769-5.973V32.378A10.546,10.546,0,0,1,18.44,21.853h5.689a14.049,14.049,0,0,0-3.84,9.6V41.2a9.856,9.856,0,0,0,6.471,9.173V66.156h-4.2V49.018a1.422,1.422,0,1,0-2.844,0V66.156H14.6V64.591a1.422,1.422,0,1,0-2.844,0v1.564H6.422a1.422,1.422,0,1,0,0,2.844H67.578a1.422,1.422,0,1,0,0-2.844ZM52.858,9.978a4.48,4.48,0,1,1,0,8.96,4.48,4.48,0,1,1,0-8.96ZM37,7.844a4.836,4.836,0,1,1-4.836,4.836A4.841,4.841,0,0,1,37,7.844ZM21.142,18.867a4.48,4.48,0,1,1,4.48-4.48A4.507,4.507,0,0,1,21.142,18.867ZM29.6,49.089V34.938a1.422,1.422,0,0,0-2.844,0V47.311A7,7,0,0,1,23.133,41.2V31.453A11.108,11.108,0,0,1,34.227,20.36h5.547A11.108,11.108,0,0,1,50.867,31.453V41.2a7.008,7.008,0,0,1-4.551,6.542v-12.8a1.422,1.422,0,0,0-2.844,0V66.156H38.422V48.876a1.422,1.422,0,0,0-2.844,0v17.28H29.6V49.587A.607.607,0,0,0,29.6,49.089Zm3.484-16.924,2.987,2.418a1.367,1.367,0,0,0,.853.284,1.742,1.742,0,0,0,.853-.284l3.058-2.418a5.532,5.532,0,0,0,2.276-4.2,4.431,4.431,0,0,0-4.409-4.409,4.658,4.658,0,0,0-1.778.356,3.978,3.978,0,0,0-1.778-.356,4.431,4.431,0,0,0-4.409,4.409C30.742,29.818,31.951,31.1,33.089,32.164Zm2.133-5.831a1.429,1.429,0,0,1,.924.284,1.5,1.5,0,0,0,1.707,0,1.429,1.429,0,0,1,.924-.284A1.578,1.578,0,0,1,40.342,27.9c0,.64-.356,1.209-1.28,1.991L36.929,31.6,34.867,29.96c-1-.853-1.351-1.422-1.351-2.062A1.708,1.708,0,0,1,35.222,26.333Z" transform="translate(-5 -5)" fill="#6cdea1"/></svg>