<svg xmlns="http://www.w3.org/2000/svg" width="69" height="64" viewBox="0 0 69 64"><path d="M70.384,10.5a5.65,5.65,0,0,0-5.616,5.671V17c-2.479,1.847-13.206,8.9-32.093,8.9H13.419A6.459,6.459,0,0,0,7,32.373V43.715A6.459,6.459,0,0,0,13.419,50.2h1.6V69.639a4.814,4.814,0,1,0,9.628,0V58.3h8.023a6.459,6.459,0,0,0,6.419-6.481V50.488c14.851,1.337,23.476,6.983,25.674,8.612v.826a5.617,5.617,0,1,0,11.233,0V16.179A5.652,5.652,0,0,0,70.384,10.5ZM10.209,43.715V32.373a3.224,3.224,0,0,1,3.209-3.241H31.07V46.956H13.419A3.224,3.224,0,0,1,10.209,43.715ZM21.442,69.639a1.6,1.6,0,1,1-3.209,0V50.2h3.209ZM35.884,51.816a3.224,3.224,0,0,1-3.209,3.241H24.651V50.2h8.023c1.1,0,2.166.032,3.209.073Zm-1.6-4.836V29.109c15.9-.324,26.019-5.355,30.488-8.19V55.17C60.3,52.335,50.181,47.3,34.279,46.98ZM72.791,59.918a2.407,2.407,0,1,1-4.814,0V16.171a2.407,2.407,0,1,1,4.814,0ZM16.628,39.665a1.62,1.62,0,0,1,0-3.241h8.023a1.62,1.62,0,0,1,0,3.241Z" transform="translate(-7 -10.5)" fill="#fff"/></svg>