<svg xmlns="http://www.w3.org/2000/svg" width="64" height="64" viewBox="0 0 64 64"><g transform="translate(-1048.818 -5490.213)"><rect width="64" height="64" transform="translate(1048.818 5490.213)" fill="none"/><rect width="58" height="50" rx="4" transform="translate(1051.818 5497.213)" fill="#6cdea1"/><path d="M32.642,13.313a1.528,1.528,0,0,0-1.318-1.007l-8.719-1.248L18.7,3.284a1.545,1.545,0,0,0-2.758,0l-3.907,7.759L3.314,12.306a1.525,1.525,0,0,0-1.241,1.022,1.484,1.484,0,0,0,.383,1.5l6.328,6.014-1.532,8.54a1.49,1.49,0,0,0,.591,1.527,1.557,1.557,0,0,0,1.661.1L17.319,27l7.815,4.015a1.446,1.446,0,0,0,.7.18,1.552,1.552,0,0,0,.9-.286,1.49,1.49,0,0,0,.613-1.5l-1.532-8.54,6.328-6.014A1.487,1.487,0,0,0,32.642,13.313Zm-9.423,6.014a1.486,1.486,0,0,0-.444,1.323l1.1,6.315-5.761-3.007a1.652,1.652,0,0,0-1.44,0l-5.761,3.007,1.1-6.315a1.486,1.486,0,0,0-.444-1.323l-4.6-4.511,6.451-.917a1.531,1.531,0,0,0,1.165-.827l2.727-5.729L20.2,13.087a1.531,1.531,0,0,0,1.165.827l6.451.917Z" transform="translate(1064.125 5504.777)" fill="#fff"/></g></svg>