<svg xmlns="http://www.w3.org/2000/svg" width="64" height="64" viewBox="0 0 64 64"><path d="M64.022,5H9.978a4.978,4.978,0,1,0,0,9.956V46.244a4.27,4.27,0,0,0,4.267,4.267H35.578v7.3a5.689,5.689,0,1,0,2.844,0v-7.3H59.756a4.27,4.27,0,0,0,4.267-4.267V14.956a4.978,4.978,0,0,0,0-9.956ZM39.844,63.311A2.844,2.844,0,1,1,37,60.467,2.844,2.844,0,0,1,39.844,63.311ZM61.178,46.244a1.426,1.426,0,0,1-1.422,1.422H14.244a1.426,1.426,0,0,1-1.422-1.422V14.956H61.178Zm2.844-34.133H9.978a2.133,2.133,0,1,1,0-4.267H64.022a2.133,2.133,0,0,1,0,4.267ZM19.933,20.644a1.426,1.426,0,0,1,1.422-1.422H52.644a1.422,1.422,0,1,1,0,2.844H21.356A1.426,1.426,0,0,1,19.933,20.644Zm-2.844,7.111a1.426,1.426,0,0,1,1.422-1.422H34.867a1.422,1.422,0,1,1,0,2.844H18.511A1.426,1.426,0,0,1,17.089,27.756Zm0,7.111a1.426,1.426,0,0,1,1.422-1.422H34.867a1.422,1.422,0,0,1,0,2.844H18.511A1.426,1.426,0,0,1,17.089,34.867Zm0,7.111a1.426,1.426,0,0,1,1.422-1.422H34.867a1.422,1.422,0,0,1,0,2.844H18.511A1.426,1.426,0,0,1,17.089,41.978Zm23.467-7.111a8.533,8.533,0,1,0,8.533-8.533A8.54,8.54,0,0,0,40.556,34.867Zm8.533,5.689a5.686,5.686,0,0,1-1.422-11.193v5.5a1.426,1.426,0,0,0,1.422,1.422h5.5A5.7,5.7,0,0,1,49.089,40.556Zm5.5-7.111H50.511V29.363A5.726,5.726,0,0,1,54.593,33.444Z" transform="translate(-5 -5)" fill="#6cdea1"/></svg>