<svg xmlns="http://www.w3.org/2000/svg" width="64" height="64" viewBox="0 0 64 64"><path d="M41.124,32.958c1,11.791-3.911,23.8-14.436,35.516a1.569,1.569,0,0,1-1.067.426,1.353,1.353,0,0,1-.924-.355,1.372,1.372,0,0,1-.071-1.989C34.653,55.4,39.276,44.181,38.351,33.171c-1-11.436-7.68-19.747-11.307-23.512v8.1a1.422,1.422,0,0,1-2.844,0V6.037c0-.071,0-.071.071-.142,0-.071,0-.071.071-.142,0-.071.071-.071.071-.142s.071-.071.071-.142V5.4l.071-.071a.07.07,0,0,1,.071-.071.248.248,0,0,1,.142-.071c.071,0,.071-.071.142-.071s.071-.071.142-.071.071,0,.142-.071c.071,0,.071,0,.142-.071H37.071a1.421,1.421,0,1,1,0,2.841H29.249C33.16,11.861,40.129,20.669,41.124,32.958ZM69,17.757a7.822,7.822,0,1,1-7.822-7.814A7.8,7.8,0,0,1,69,17.757Zm-2.844,0a4.978,4.978,0,1,0-4.978,4.972A4.944,4.944,0,0,0,66.156,17.757ZM60.04,48.727a1.376,1.376,0,0,0-1.991,0l-5.4,5.4-5.4-5.4a1.407,1.407,0,1,0-1.991,1.989l5.4,5.4-5.4,5.4a1.372,1.372,0,0,0,0,1.989,1.376,1.376,0,0,0,1.991,0l5.4-5.4,5.4,5.4a1.376,1.376,0,0,0,1.991,0,1.372,1.372,0,0,0,0-1.989l-5.4-5.4,5.4-5.4A1.372,1.372,0,0,0,60.04,48.727ZM20.218,29.548a1.376,1.376,0,0,0-1.991,0l-5.4,5.4-5.4-5.4a1.407,1.407,0,0,0-1.991,1.989l5.4,5.4-5.4,5.4a1.372,1.372,0,0,0,0,1.989,1.376,1.376,0,0,0,1.991,0l5.4-5.4,5.4,5.4a1.376,1.376,0,0,0,1.991,0,1.372,1.372,0,0,0,0-1.989l-5.4-5.4,5.4-5.4A1.372,1.372,0,0,0,20.218,29.548Z" transform="translate(-5 -4.9)" fill="#6cdea1"/></svg>