<svg xmlns="http://www.w3.org/2000/svg" width="90" height="64" viewBox="0 0 90 64"><path d="M89,38H63V29a6,6,0,0,0-6-6H49V20a2.006,2.006,0,0,0-2-2H12a7,7,0,0,0,0,14H47a2.006,2.006,0,0,0,2-2V27h8a2.006,2.006,0,0,1,2,2v9H33a6,6,0,0,0-6,6v9.14L10.37,47.1A4,4,0,0,0,5,50.86V69.15a4.034,4.034,0,0,0,1.7,3.28,3.989,3.989,0,0,0,2.3.72,4.077,4.077,0,0,0,1.37-.24L27,66.86V76a6,6,0,0,0,6,6H89a6,6,0,0,0,6-6V44A6,6,0,0,0,89,38ZM45,28H12a3,3,0,0,1,0-6H45ZM9,69.14V50.85L27,57.4v5.2ZM89,78H33a2.006,2.006,0,0,1-2-2V44a2.006,2.006,0,0,1,2-2H89a2.006,2.006,0,0,1,2,2V58H55a2,2,0,0,0,0,4H91V76A2.006,2.006,0,0,1,89,78Zm-4.59-9.41A1.966,1.966,0,0,1,85,70a2.031,2.031,0,0,1-.15.77,1.879,1.879,0,0,1-.44.64,1.425,1.425,0,0,1-.3.25,1.7,1.7,0,0,1-.35.19,1.447,1.447,0,0,1-.37.11A1.722,1.722,0,0,1,83,72a1.949,1.949,0,0,1-1.41-.59,1.879,1.879,0,0,1-.44-.64A2.031,2.031,0,0,1,81,70a1.966,1.966,0,0,1,.59-1.41,1.425,1.425,0,0,1,.3-.25,2.269,2.269,0,0,1,.34-.19,1.657,1.657,0,0,1,.38-.11A1.994,1.994,0,0,1,84.41,68.59Zm-9.45,1.02a1.921,1.921,0,0,1,0,.78,1.657,1.657,0,0,1-.11.38,1.633,1.633,0,0,1-.19.34,1.425,1.425,0,0,1-.25.3,1.879,1.879,0,0,1-.64.44A2.031,2.031,0,0,1,73,72a1.966,1.966,0,0,1-1.41-.59,1.867,1.867,0,0,1-.26-.3,2.212,2.212,0,0,1-.18-.34,1.657,1.657,0,0,1-.11-.38,1.921,1.921,0,0,1,0-.78,1.657,1.657,0,0,1,.11-.38,1.633,1.633,0,0,1,.19-.34,2.157,2.157,0,0,1,.55-.55,2.269,2.269,0,0,1,.34-.19,1.657,1.657,0,0,1,.38-.11,2.047,2.047,0,0,1,.78,0,1.577,1.577,0,0,1,.37.11,1.954,1.954,0,0,1,.35.19,2.157,2.157,0,0,1,.55.55,2.269,2.269,0,0,1,.19.34A1.657,1.657,0,0,1,74.96,69.61Z" transform="translate(-5 -18)" fill="#fff"/></svg>